# xmcd CD database file
#
# Track frame offsets:
#	150
#	21215
#	52647
#
# Disc length: 1100 seconds
#
# Revision: 2
# Processed by: cddbd v1.5PL3 Copyright (c) Steve Scherf et al.
# Submitted via: CDex 1.50
#
DISCID=16044a03
DTITLE=GOING UNDER GROUND - ダイアリー
DYEAR=2003
DGENRE=JPop
TTITLE0=ダイアリー
TTITLE1=夕暮れ白書
TTITLE2=data
EXTD=YEAR: 2003
EXTT0=
EXTT1=
EXTT2=
PLAYORDER=
